<?xml version="1.0" standalone="no"?><!DOCTYPE svg PUBLIC "-//W3C//DTD SVG 1.1//EN" "http://www.w3.org/Graphics/SVG/1.1/DTD/svg11.dtd"><svg t="1589355014411" class="icon" viewBox="0 0 1024 1024" version="1.1" xmlns="http://www.w3.org/2000/svg" p-id="3235" xmlns:xlink="http://www.w3.org/1999/xlink" width="200" height="200"><defs><style type="text/css"></style></defs><path d="M1021.312 651.136c1.472 8.832 1.152 19.392-1.152 31.872-2.112 12.48-5.824 25.152-10.944 37.952-5.12 12.864-11.328 24.384-18.624 34.624-7.296 10.304-15.488 17.6-24.128 22.016-8.832 4.48-16.512 6.656-23.104 6.656-6.592 0-13.824-1.408-21.888-4.416-7.296-2.176-16.512-4.224-27.456-6.08-11.072-1.792-22.144-2.112-33.536-1.088-11.328 1.088-22.656 3.456-33.984 7.104-11.264 3.584-21.12 9.92-29.056 18.688-17.6 18.304-27.968 39.232-30.848 62.72-2.88 23.488 0.384 45.824 9.92 67.072 7.296 14.72 6.208 29.312-3.264 43.968-4.352 5.888-11.456 11.904-20.864 18.112-9.536 6.272-20.032 11.968-31.296 17.088-11.264 5.184-23.232 9.152-35.776 12.16-12.48 2.944-23.424 4.416-33.024 4.416-6.592 0-12.672-2.56-18.624-7.68-5.824-5.184-9.792-10.688-12.096-16.512h-1.152c-8.064-22.784-21.76-42.304-41.152-58.816s-41.856-24.768-67.584-24.768c-24.896 0-47.424 8.256-67.52 24.768-20.16 16.512-34.24 35.712-42.304 57.728-3.648 8.832-9.152 15.232-16.512 19.264-7.168 4.032-15.232 6.016-24.064 6.016-10.24 0-21.76-1.792-34.56-5.568-12.8-3.648-25.664-8.256-38.464-13.76-12.8-5.504-24.384-11.904-34.624-19.264-10.24-7.296-17.92-14.656-23.04-21.952-3.648-5.184-5.696-11.2-6.08-18.112-0.384-6.976 2.368-16.704 8.256-29.184 8.064-16.896 11.136-36.096 9.344-57.792-1.792-21.632-11.136-41.6-28.032-59.904-10.24-11.008-22.656-18.112-37.312-21.44-14.656-3.328-28.544-4.608-41.728-3.84-15.424 0.704-31.104 3.648-47.232 8.832-10.24 2.88-20.48 2.112-30.784-2.24-8.064-2.88-15.552-9.664-22.528-20.288-6.976-10.624-13.12-22.464-18.688-35.2-5.504-12.864-9.664-25.984-12.608-39.616-2.88-13.568-3.648-24.704-2.176-33.536 2.176-16.128 9.472-26.368 21.952-30.784 21.952-8.832 41.664-23.296 59.264-43.52 17.6-20.16 26.368-42.688 26.368-67.648 0-25.6-8.768-48-26.368-67.072-17.6-19.136-37.376-33.024-59.328-41.856-6.4-2.048-11.904-7.36-16.256-15.808C2.24 376 0 367.36 0 358.656c0-9.536 1.472-20.224 4.352-31.936 2.88-11.712 6.784-23.104 11.52-34.112a194.782 194.782 0 0 1 16.512-30.272c6.272-9.088 13.056-15.936 20.288-20.352 5.888-3.648 11.584-5.12 17.088-4.416 5.504 0.704 11.52 2.176 18.112 4.416 21.952 8.832 44.864 11.52 68.672 8.256 23.744-3.264 44.864-13.76 63.168-31.296 8.768-8.832 15.168-19.648 19.2-32.448 3.968-12.928 6.656-25.536 7.68-38.016 1.152-12.48 1.152-23.808 0-34.048-1.088-10.304-2.048-17.6-2.752-21.952-1.472-4.416-2.752-9.6-3.84-15.424-1.152-5.888-0.576-11.072 1.6-15.424 4.352-10.24 12.224-19.2 23.616-26.88a182.662 182.662 0 0 1 36.8-19.264A248.753 248.753 0 0 1 340.48 3.84C352.896 1.28 362.816 0 370.112 0c9.472 0 17.024 3.072 22.528 9.344 5.504 6.272 9.28 12.736 11.456 19.328 8.064 19.776 21.248 37.12 39.552 52.224 18.304 15.04 39.936 22.592 64.832 22.592 25.664 0 48.32-7.168 68.096-21.504 19.776-14.336 33.664-32.448 41.728-54.464 2.88-5.888 7.552-11.968 13.696-18.112 6.208-6.272 12.544-9.344 19.264-9.344 10.176 0 21.376 1.408 33.472 4.416 12.096 2.88 24 6.976 35.648 12.16 11.84 5.12 22.656 11.712 32.448 19.776 9.92 8.064 17.728 16.832 23.616 26.368 3.648 5.888 4.736 12.288 3.264 19.2-1.472 6.976-2.88 11.904-4.352 14.848-9.536 21.312-12.416 43.584-8.832 67.072 3.648 23.424 14.336 44.032 31.808 61.632 17.6 17.6 39.232 27.264 64.832 29.184 25.664 1.792 49.472-2.368 71.424-12.672 5.824-3.648 12.928-5.184 21.376-4.416 8.448 0.768 15.488 4.096 21.376 9.856 10.944 10.24 20.608 25.856 29.056 46.784 8.448 20.928 14.08 41.984 17.024 63.232 1.472 12.48-0.512 22.208-5.952 29.184-5.568 6.912-11.2 11.52-17.152 13.76-22.656 8.064-41.984 22.208-58.112 42.304-16.128 20.096-24.128 43.072-24.128 68.736 0 24.96 6.784 46.784 20.224 65.472 13.568 18.624 31.296 32.064 53.184 40.128a98.044 98.044 0 0 1 13.184 8.768c8.256 6.592 13.76 15.04 16.64 25.28z m-510.656 99.008c32.896 0 64.128-6.272 93.312-18.688 29.312-12.48 54.784-29.696 76.416-51.648 21.632-22.08 38.656-47.488 51.072-76.48 12.416-28.992 18.624-59.968 18.624-92.928 0-33.024-6.208-64-18.624-92.928-12.416-28.992-29.44-54.336-51.072-75.904-21.632-21.632-47.04-38.72-76.416-51.136-29.184-12.48-60.416-18.752-93.312-18.752s-63.936 6.272-92.864 18.688c-28.8 12.48-54.144 29.568-75.648 51.2-21.568 21.568-38.656 46.976-51.072 75.904-12.48 28.928-18.688 59.968-18.688 92.928 0 32.96 6.272 63.936 18.688 92.928 12.416 28.928 29.504 54.4 51.072 76.48 21.568 22.016 46.912 39.168 75.776 51.648 28.928 12.416 59.84 18.688 92.736 18.688z m0 0" fill="" p-id="3236"></path></svg>