<?xml version="1.0" standalone="no"?><!DOCTYPE svg PUBLIC "-//W3C//DTD SVG 1.1//EN" "http://www.w3.org/Graphics/SVG/1.1/DTD/svg11.dtd"><svg t="1591333078394" class="icon" viewBox="0 0 1024 1024" version="1.1" xmlns="http://www.w3.org/2000/svg" p-id="2788" xmlns:xlink="http://www.w3.org/1999/xlink" width="200" height="200"><defs><style type="text/css"></style></defs><path d="M56.888889 0h341.333333a56.888889 56.888889 0 0 1 56.888889 56.888889v341.333333a56.888889 56.888889 0 0 1-56.888889 56.888889H56.888889a56.888889 56.888889 0 0 1-56.888889-56.888889V56.888889a56.888889 56.888889 0 0 1 56.888889-56.888889z m568.888889 0h341.333333a56.888889 56.888889 0 0 1 56.888889 56.888889v341.333333a56.888889 56.888889 0 0 1-56.888889 56.888889h-341.333333a56.888889 56.888889 0 0 1-56.888889-56.888889V56.888889a56.888889 56.888889 0 0 1 56.888889-56.888889zM56.888889 625.777778h341.333333a56.888889 56.888889 0 0 1 0 113.777778H56.888889a56.888889 56.888889 0 0 1 0-113.777778z m568.888889 0h341.333333a56.888889 56.888889 0 0 1 0 113.777778h-341.333333a56.888889 56.888889 0 0 1 0-113.777778zM56.888889 910.222222h341.333333a56.888889 56.888889 0 0 1 0 113.777778H56.888889a56.888889 56.888889 0 0 1 0-113.777778z m568.888889 0h341.333333a56.888889 56.888889 0 0 1 0 113.777778h-341.333333a56.888889 56.888889 0 0 1 0-113.777778z" p-id="2789"></path></svg>