<?xml version="1.0" standalone="no"?><!DOCTYPE svg PUBLIC "-//W3C//DTD SVG 1.1//EN" "http://www.w3.org/Graphics/SVG/1.1/DTD/svg11.dtd"><svg t="1591333054377" class="icon" viewBox="0 0 1024 1024" version="1.1" xmlns="http://www.w3.org/2000/svg" p-id="2429" xmlns:xlink="http://www.w3.org/1999/xlink" width="200" height="200"><defs><style type="text/css"></style></defs><path d="M386.133333 503.466667c0 44.8 23.466667 85.333333 61.866667 108.8 38.4 23.466667 87.466667 23.466667 125.866667 0 38.4-23.466667 61.866667-64 61.866666-108.8s-23.466667-85.333333-61.866666-108.8c-38.4-23.466667-87.466667-23.466667-125.866667 0-38.4 23.466667-61.866667 64-61.866667 108.8z m0 0" p-id="2430"></path><path d="M512 829.866667c224 0 405.333333-181.333333 405.333333-405.333334S736 21.333333 512 21.333333 106.666667 202.666667 106.666667 426.666667s181.333333 403.2 405.333333 403.2z m0-561.066667c128 0 230.4 102.4 230.4 230.4 0 128-102.4 230.4-230.4 230.4s-230.4-102.4-230.4-230.4c0-128 102.4-230.4 230.4-230.4z m0 0" p-id="2431"></path><path d="M812.8 778.666667c-81.066667 70.4-185.6 110.933333-300.8 110.933333s-219.733333-42.666667-300.8-110.933333L149.333333 908.8v2.133333c-6.4 17.066667-2.133333 36.266667 8.533334 51.2 19.2 23.466667 61.866667 40.533333 106.666666 40.533334h492.8c38.4 0 87.466667-12.8 108.8-42.666667 10.666667-14.933333 12.8-34.133333 6.4-49.066667l-59.733333-132.266666z m0 0" p-id="2432"></path></svg>