<?xml version="1.0" standalone="no"?><!DOCTYPE svg PUBLIC "-//W3C//DTD SVG 1.1//EN" "http://www.w3.org/Graphics/SVG/1.1/DTD/svg11.dtd"><svg t="1589355067690" class="icon" viewBox="0 0 1024 1024" version="1.1" xmlns="http://www.w3.org/2000/svg" p-id="3354" xmlns:xlink="http://www.w3.org/1999/xlink" width="200" height="200"><defs><style type="text/css"></style></defs><path d="M364.94336 313.73312m-208.38912 0a208.38912 208.38912 0 1 0 416.77824 0 208.38912 208.38912 0 1 0-416.77824 0Z" p-id="3355"></path><path d="M726.19008 872.71424a351.77472 351.77472 0 0 0-26.69056-134.17984 351.9488 351.9488 0 0 0-76.00128-113.74592 351.81056 351.81056 0 0 0-113.75616-76.0064 351.73888 351.73888 0 0 0-134.1696-26.68544c-1.94048 0-3.87584 0.11776-5.8112 0.1536-1.60768-0.02048-3.21536-0.128-4.81792-0.128a351.744 351.744 0 0 0-134.1696 26.69056 351.85152 351.85152 0 0 0-113.75616 76.00128A351.98464 351.98464 0 0 0 41.02144 738.56a351.67744 351.67744 0 0 0-26.69056 134.17984h407.9616l-0.0256-0.0256h303.9232z" p-id="3356"></path><path d="M579.13856 401.01376a183.9872 183.9872 0 0 0 111.5904 37.504c102.09792 0 184.85248-82.75968 184.85248-184.84736s-82.74944-184.84736-184.85248-184.84736c-65.4336 0-122.88512 34.03264-155.73504 85.33504 37.63712 42.49088 60.52352 98.34496 60.52352 159.56992a239.9488 239.9488 0 0 1-16.37888 87.28576z" p-id="3357"></path><path d="M654.61248 614.33856a402.3808 402.3808 0 0 1 86.93248 130.10944c0.6912 1.66912 1.28 3.37408 1.95072 5.05344h267.6736c0-40.71424-8.09984-81.408-23.68-119.0144a312.00256 312.00256 0 0 0-67.40992-100.89984 312.01792 312.01792 0 0 0-100.89984-67.41504 312.064 312.064 0 0 0-119.0144-23.67488c-1.72032 0-3.44064 0.10752-5.15584 0.13824-1.42336-0.02048-2.85184-0.11264-4.2752-0.11264a311.9616 311.9616 0 0 0-119.00928 23.67488 311.37792 311.37792 0 0 0-54.72256 29.44 241.03424 241.03424 0 0 1-29.13792 22.66624 399.24224 399.24224 0 0 1 36.6336 13.1072 402.3808 402.3808 0 0 1 130.11456 86.92736z" p-id="3358"></path></svg>